<svg className="icon-height" height='1.4rem' viewBox="0 0 24 24" xmlns="http://www.w3.org/2000/svg"     xmlnsXlink="http://www.     w3.org/1999/xlink" focusable="false" dataTestid="iconTestIdPaymentIcon">
<path d="M16.97 2c.607 0 1.198.309 1.523.861l5.271 8.947a1.704 1.704 0 01-.643 2.353L7.906 22.769a1.776 1.776 0 01-2.4-.63l-5.27-8.946a1.703 1.703 0 01.642-2.353l15.216-8.609c.276-.156.579-.231.876-.231zm0 .84a.901.901 0 00-.446.118l-15.217 8.61a.873.873 0 00-.329 1.205l5.27 8.946a.91.91 0 001.23.322l15.214-8.608a.873.873 0 00.33-1.205l-5.271-8.947a.903.903 0 00-.781-.441zm-6.577 13.508l.429.728-3.304 1.87-.429-.728 3.304-1.87zm5.197-2.94l.429.728-4.454 2.52-.429-.727 4.454-2.52zm-8.845-1.652a.86.86 0 01.743.42l.857 1.454a.832.832 0 01-.314 1.148l-1.484.84a.877.877 0 01-.428.113.858.858 0 01-.743-.421l-.857-1.454a.831.831 0 01.313-1.148l1.485-.84a.868.868 0 01.428-.112zm0 .84l-1.484.84.857 1.454 1.485-.84-.857-1.454zm12.938-1.503l.428.727-3.35 1.896-.429-.727 3.35-1.896z"></path>
</svg>