<svg className="icon-height" height='1.4rem' viewBox="0 0 24 24" xmlns="http://www.w3.org/2000/svg"     xmlnsXlink="http://www.     w3.org/1999/xlink" focusable="false" dataTestid="iconTestIdPaymentIcon"><path d="M18.942 12.052l2.724 4.707a2.5 2.5 0 01-1.975 3.745l-.188.007h-5.614l1.263 1.26-.707.707-2.477-2.472 2.477-2.471.707.708-1.273 1.268h5.624A1.5 1.5 0 0020.8 17.26l-2.725-4.707.866-.501zM6.528 10.506l.962 3.363-.961.275-.505-1.763-2.822 4.879a1.5 1.5 0 001.154 2.244l.144.007h5.93v1H4.5a2.5 2.5 0 01-2.164-3.752l2.782-4.806-1.676.483-.277-.961 3.363-.97zm6.756-7.67a2.5 2.5 0 01.911.912l2.939 5.077.504-1.766.962.274-.959 3.362-3.364-.965.276-.96 1.67.478-2.893-5a1.5 1.5 0 00-2.597 0l-2.917 5.04-.866-.5 2.918-5.04a2.5 2.5 0 013.416-.911z"></path></svg>