<svg className="icon-height" height='1.4rem' viewBox="0 0 24 24" xmlns="http://www.w3.org/2000/svg"     xmlnsXlink="http://www.     w3.org/1999/xlink" focusable="false" dataTestid="iconTestIdPaymentIcon"><path d="M12 1c2.645 0 4.495 1.253 4.495 3.463V8L21 8v13.353a2 2 0 01-1.655 1.97c-2.451.43-4.901.644-7.35.644-2.446 0-4.894-.214-7.34-.644A2 2 0 013 21.353V8l4.496-.001.001-3.586C7.497 2.237 9.365 1 11.999 1zm8 8h-3.505v3h-1V9H8.496l.001 3h-1l-.001-3H4v12.353a1 1 0 00.71.957l.117.028c2.39.42 4.78.63 7.169.63 2.39 0 4.782-.21 7.177-.63a1 1 0 00.82-.866l.007-.12V9zm-8-7c-2.148 0-3.503.897-3.503 2.413L8.496 8h6.999V4.463C15.495 2.907 14.156 2 12 2z"></path></svg>