<svg className="icon-height" height='1.4rem' viewBox="0 0 24 24" xmlns="http://www.w3.org/2000/svg"     xmlnsXlink="http://www.     w3.org/1999/xlink" focusable="false" dataTestid="iconTestIdPaymentIcon"><path d="M11.49 0c.8-.01 1.595.114 2.311.364 2.646.917 3.323 2.783 2.917 7.013l-.005.052-.006.053c-.115 1.194-.208 1.731-.426 2.391-.06.182-.128.36-.203.532-.135.312-.25.55-.537 1.117l-.012.023-.17.34c-.201.402-.301.623-.404.882a1.983 1.983 0 00-.064.189l-.024.014c2.35-1.493 5.399-1.273 7.404.732 2.332 2.332 2.295 6.115-.051 8.461-2.342 2.402-6.128 2.457-8.47.115a6.107 6.107 0 01-.317-.341l.026.03c-.66.022-1.316.033-1.96.033a67.32 67.32 0 01-7.623-.452c-2.863-.339-3.88-.544-3.876-1.242l.05-.413c.38-1.746 1.586-2.848 3.778-3.6 1.217-.416 1.432-.495 1.97-.73 2.024-.88 2.664-1.724 2.24-2.796-.128-.324-.252-.59-.573-1.222l-.012-.025a18.808 18.808 0 01-.537-1.115 6.292 6.292 0 01-.203-.532c-.22-.666-.313-1.207-.428-2.412l-.004-.043-.004-.041C5.87 3.15 6.546 1.281 9.192.364a6.589 6.589 0 011.354-.312c.313-.038.63-.056.944-.051zm2.963 14.47a5.007 5.007 0 00-.051 7.155c1.976 1.976 5.172 1.93 7.16-.11 1.994-1.993 2.025-5.192.056-7.16-1.957-1.958-5.103-1.896-7.165.114zM11.497 1h-.015c-.27-.003-.544.012-.814.045-.4.05-.788.138-1.148.263-2.101.73-2.616 2.15-2.247 5.974l.004.041.004.043c.108 1.137.19 1.613.382 2.193.05.153.107.302.17.448.126.29.233.512.512 1.061l.012.025c.334.658.47.947.612 1.307.674 1.705-.318 3.013-2.771 4.08-.57.249-.806.336-2.046.76-1.889.648-2.83 1.506-3.117 2.816l-.001.012c.131.037.302.076.507.118a32.46 32.46 0 002.453.369c2.318.274 5.014.445 7.505.445.417 0 .84-.005 1.265-.014l.038.065a5.93 5.93 0 011.007-7.243l.106-.1-.064.06c-.075-.427-.019-.881.174-1.369.142-.36.278-.647.612-1.306l.012-.024c.278-.55.386-.772.512-1.062a5.26 5.26 0 00.17-.448c.19-.575.273-1.047.381-2.173l.005-.053.005-.052c.368-3.824-.147-5.244-2.25-5.973a5.822 5.822 0 00-1.975-.307zm7.108 14.066v2.403h2.403v1.133l-2.403-.001v2.404h-1.133v-2.403H15.07v-1.133h2.402v-2.403h1.133z"></path></svg>