<?xml version="1.0" encoding="utf-8"?>
<svg viewBox="516.006 379.573 717.28 354.74" width="717.28" height="354.74" xmlns="http://www.w3.org/2000/svg" xmlns:xlink="http://www.w3.org/1999/xlink">
  <defs>
    <linearGradient id="Degradado_sin_nombre_2" x1="934.96" y1="704.53" x2="1521.11" y2="704.53" gradientUnits="userSpaceOnUse" gradientTransform="matrix(1, 0, 0, 1, -329.304138, 26.792585)">
      <stop offset="0" stop-color="#fff7a1"/>
      <stop offset="0.03" stop-color="#ffe678"/>
      <stop offset="0.04" stop-color="#f5d367"/>
      <stop offset="0.08" stop-color="#d79a33"/>
      <stop offset="0.11" stop-color="#c57712"/>
      <stop offset="0.13" stop-color="#be6a06"/>
      <stop offset="0.16" stop-color="#c67a15"/>
      <stop offset="0.23" stop-color="#dda43c"/>
      <stop offset="0.32" stop-color="#ffe678"/>
      <stop offset="0.39" stop-color="#fff194"/>
      <stop offset="0.44" stop-color="#fff7a1"/>
      <stop offset="0.69" stop-color="#ffe678"/>
      <stop offset="0.7" stop-color="#f9da6d"/>
      <stop offset="0.75" stop-color="#e0ab42"/>
      <stop offset="0.79" stop-color="#cd8822"/>
      <stop offset="0.82" stop-color="#c2730f"/>
      <stop offset="0.85" stop-color="#be6b08"/>
      <stop offset="0.87" stop-color="#c06f0b"/>
      <stop offset="0.89" stop-color="#c67a16"/>
      <stop offset="0.91" stop-color="#d08d27"/>
      <stop offset="0.93" stop-color="#dea73f"/>
      <stop offset="0.95" stop-color="#f0c95e"/>
      <stop offset="0.96" stop-color="#ffe678"/>
      <stop offset="0.98" stop-color="#fff08e"/>
      <stop offset="1" stop-color="#fff69b"/>
    </linearGradient>
    <linearGradient id="Degradado_sin_nombre_2-2" x1="934.96" y1="691.98" x2="1521.11" y2="691.98" gradientTransform="matrix(1, 0, 0, 1, -658.608276, 53.585171)" xlink:href="#Degradado_sin_nombre_2"/>
    <linearGradient id="Degradado_sin_nombre_2-3" x1="414.94" y1="691.98" x2="1001.1" y2="691.98" gradientTransform="matrix(-1, 0, 0, 1, 1156.375916, 26.792585)" xlink:href="#Degradado_sin_nombre_2"/>
    <linearGradient id="Degradado_sin_nombre_2-4" x1="414.94" y1="704.53" x2="1001.1" y2="704.53" gradientTransform="matrix(-1, 0, 0, 1, 1156.375916, 26.792585)" xlink:href="#Degradado_sin_nombre_2"/>
    <linearGradient id="linear-gradient" x1="165.21" y1="521.46" x2="904.4" y2="521.46" gradientUnits="userSpaceOnUse" gradientTransform="matrix(1, 0, 0, 1, 334.875854, 26.792585)">
      <stop offset="0" stop-color="#ee344c"/>
      <stop offset="0.26" stop-color="#be6a06"/>
      <stop offset="0.32" stop-color="#b35a07"/>
      <stop offset="0.43" stop-color="#953008"/>
      <stop offset="0.51" stop-color="#7a0a0a"/>
      <stop offset="0.67" stop-color="#9c3b09"/>
      <stop offset="0.81" stop-color="#b55e08"/>
      <stop offset="0.88" stop-color="#be6b08"/>
    </linearGradient>
    <linearGradient id="Degradado_sin_nombre_2-5" x1="165.2" y1="566.34" x2="904.4" y2="566.34" gradientTransform="matrix(1, 0, 0, 1, 5.571716, 53.585171)" xlink:href="#Degradado_sin_nombre_2"/>
    <linearGradient id="Degradado_sin_nombre_2-6" x1="-98.92" y1="566.34" x2="640.27" y2="566.34" gradientTransform="matrix(-1, 0, 0, 1, 1160.22583, 26.792585)" xlink:href="#Degradado_sin_nombre_2"/>
    <linearGradient id="linear-gradient-2" x1="165.2" y1="511.19" x2="904.41" y2="511.19" gradientTransform="matrix(1, 0, 0, 1, 669.751709, 53.585171)" xlink:href="#linear-gradient"/>
    <linearGradient id="linear-gradient-3" x1="394.44" y1="354.73" x2="719.68" y2="354.73" gradientTransform="matrix(0.262189, 0.965017, -0.965017, 0.262189, 1216.145874, -107.567415)" xlink:href="#linear-gradient"/>
    <linearGradient id="linear-gradient-4" x1="461.74" y1="337.54" x2="642.99" y2="337.54" gradientTransform="matrix(0.262189, 0.965017, -0.965017, 0.262189, 1216.145874, -107.567415)" xlink:href="#linear-gradient"/>
    <linearGradient id="Degradado_sin_nombre_9" x1="560.25" y1="469.53" x2="560.25" y2="495.52" gradientUnits="userSpaceOnUse" gradientTransform="matrix(1, 0, 0, 1, 334.875854, 26.792585)">
      <stop offset="0" stop-color="#959dae"/>
      <stop offset="0.17" stop-color="#959dae" stop-opacity="0.86"/>
      <stop offset="0.53" stop-color="#959dae" stop-opacity="0.51"/>
      <stop offset="1" stop-color="#959dae" stop-opacity="0"/>
    </linearGradient>
    <linearGradient id="Degradado_sin_nombre_9-2" x1="702.12" y1="483.57" x2="702.12" y2="500.58" gradientTransform="matrix(1, 0, 0, 1, 669.751709, 53.585171)" xlink:href="#Degradado_sin_nombre_9"/>
    <linearGradient id="Degradado_sin_nombre_3" x1="266.93" y1="710.63" x2="266.93" y2="580.55" gradientUnits="userSpaceOnUse" gradientTransform="matrix(1, 0, 0, 1, 1004.627563, 80.377756)">
      <stop offset="0" stop-color="#fafafa"/>
      <stop offset="0.3" stop-color="#c6c6c6"/>
      <stop offset="0.32" stop-color="#bcbcbc"/>
      <stop offset="0.41" stop-color="#a0a0a0"/>
      <stop offset="0.48" stop-color="#8f8f8f"/>
      <stop offset="0.53" stop-color="#898989"/>
      <stop offset="0.59" stop-color="#919191"/>
      <stop offset="0.68" stop-color="#a7a7a7"/>
      <stop offset="0.79" stop-color="#cbcbcb"/>
      <stop offset="0.83" stop-color="#dcdcdc"/>
      <stop offset="1" stop-color="#fafafa"/>
    </linearGradient>
    <linearGradient id="Degradado_sin_nombre_3-4" x1="651.76" y1="709.81" x2="651.76" y2="581.04" gradientTransform="matrix(1, 0, 0, 1, 4018.510132, 321.511)" xlink:href="#Degradado_sin_nombre_3"/>
    <style>.cls-1{fill:#000723;}.cls-2{fill:url(#Degradado_sin_nombre_2);}.cls-3{fill:url(#Degradado_sin_nombre_2-2);}.cls-4{fill:url(#Degradado_sin_nombre_2-3);}.cls-5{fill:url(#Degradado_sin_nombre_2-4);}.cls-6{fill:url(#linear-gradient);}.cls-7{fill:url(#Degradado_sin_nombre_2-5);}.cls-8{fill:url(#Degradado_sin_nombre_2-6);}.cls-9{fill:url(#linear-gradient-2);}.cls-10{fill:url(#linear-gradient-3);}.cls-11{fill:url(#linear-gradient-4);}.cls-12{fill:url(#Degradado_sin_nombre_9);}.cls-13{fill:url(#Degradado_sin_nombre_9-2);}.cls-14{fill:url(#Degradado_sin_nombre_3);}.cls-15{fill:url(#Degradado_sin_nombre_3-4);}.cls-16{font-size:12px;font-family:MyriadPro-Regular, Myriad Pro;}.cls-17{letter-spacing:-0.01em;}.cls-18{letter-spacing:-0.01em;}.cls-19{letter-spacing:0em;}</style>
  </defs>
  <polygon class="cls-2" points="718.886 734.313 595.296 731.323 718.886 728.333 718.886 734.313"/>
  <polygon class="cls-3" points="718.886 721.773 595.296 718.783 718.886 715.783 718.886 721.773"/>
  <polygon class="cls-4" points="1006.286 721.773 1129.876 718.783 1006.286 715.783 1006.286 721.773"/>
  <polygon class="cls-5" points="1006.286 734.313 1129.876 731.323 1006.286 728.333 1006.286 734.313"/>
  <path class="cls-6" d="M 1001.356 544.173 C 976.266 544.803 775.186 551.703 775.186 551.703 L 776.516 554.973 L 805.006 554.973 L 777.216 556.723 L 777.676 557.843 C 777.676 557.843 909.786 557.093 919.566 555.463 C 929.346 553.833 931.106 551.793 931.106 551.793 C 931.106 551.793 1025.226 549.433 1045.106 538.623 C 1030.755 541.986 1016.092 543.846 1001.356 544.173 Z"/>
  <path class="cls-7" d="M 589.276 583.183 C 565.186 588.953 556.536 605.793 556.536 605.793 C 556.536 605.793 569.326 587.423 603.076 585.793 C 636.826 584.163 729.876 582.563 729.876 582.563 C 729.876 582.563 613.356 577.413 589.276 583.183 Z"/>
  <path class="cls-8" d="M 1169.956 583.183 C 1194.046 588.953 1202.696 605.823 1202.696 605.823 C 1202.696 605.823 1189.876 587.453 1156.156 585.793 C 1122.436 584.133 1029.336 582.533 1029.336 582.533 C 1029.336 582.533 1145.876 577.413 1169.956 583.183 Z"/>
  <path class="cls-9" d="M 965.606 485.593 C 870.776 479.193 826.926 495.003 792.306 507.423 C 757.686 519.843 727.386 545.613 695.776 550.513 C 664.166 555.413 579.216 554.033 545.646 564.063 C 532.716 567.923 524.346 570.873 519.496 572.703 C 516.656 573.753 515.536 577.176 517.206 579.703 C 517.206 579.703 535.076 568.983 574.406 563.903 C 598.945 560.831 623.699 559.828 648.406 560.903 C 648.406 560.903 572.006 564.793 549.806 573.573 C 538.026 578.233 531.056 581.113 527.096 583.733 C 524.407 585.535 523.632 589.146 525.346 591.893 C 525.346 591.893 545.766 575.463 581.276 572.323 C 610.996 569.703 710.946 568.393 742.806 568.033 C 748.789 567.97 754.363 564.982 757.726 560.033 C 761.436 554.583 766.406 548.033 769.836 546.353 L 779.496 546.353 C 783.496 546.353 791.916 541.353 792.296 540.213 C 792.676 539.073 787.296 533.423 782.006 532.923 C 778.406 532.583 767.296 544.263 760.636 551.683 L 739.716 551.683 L 753.716 539.553 L 726.416 555.313 L 757.356 555.313 C 756.106 556.753 755.356 557.643 755.356 557.643 L 710.356 557.173 C 708.901 557.171 707.994 555.595 708.723 554.335 C 708.976 553.897 709.396 553.579 709.886 553.453 C 715.102 552.163 720.233 550.547 725.246 548.613 C 732.646 545.353 797.626 503.453 882.056 496.433 C 928.736 492.543 975.226 496.883 1007.596 501.893 C 1010.908 502.403 1013.078 505.634 1012.296 508.893 L 1004.646 541.433 L 1019.966 507.563 C 1020.868 505.575 1023.011 504.46 1025.156 504.863 C 1034.416 506.573 1041.606 508.153 1046.156 509.353 C 1066.096 514.623 1067.606 516.593 1064.406 523.183 C 1062.169 527.479 1059.135 531.31 1055.466 534.473 C 1061.987 530.979 1067.746 526.219 1072.406 520.473 C 1072.406 520.473 1150.406 539.763 1149.456 541.543 C 1148.506 543.323 1062.896 544.543 1049.916 548.133 C 1036.936 551.723 1029.216 563.653 1029.216 563.653 C 1029.216 563.653 1087.676 555.913 1134.966 558.043 C 1182.256 560.173 1197.966 563.813 1202.586 562.813 C 1207.206 561.813 1211.586 557.293 1211.586 557.293 C 1211.586 557.293 1218.866 559.803 1224.506 558.543 C 1230.146 557.283 1233.286 551.773 1233.286 551.773 C 1233.286 551.773 1060.446 491.993 965.606 485.593 Z M 1188.716 557.423 C 1177.176 555.423 1102.466 548.813 1102.466 548.813 C 1125.046 547.183 1202.696 552.953 1202.696 552.953 C 1202.696 552.953 1200.256 559.433 1188.716 557.423 Z"/>
  <path class="cls-10" d="M 995.706 412.343 C 1057.066 410.483 1119.766 448.523 1142.466 499.733 C 1144.348 503.991 1145.951 508.367 1147.266 512.833 C 1153.936 514.773 1160.386 516.693 1166.566 518.553 L 1182.876 510.793 L 1173.346 490.213 L 1150.996 487.073 C 1149.076 483.673 1147.019 480.339 1144.826 477.073 L 1156.346 462.253 L 1140.046 444.793 L 1120.346 448.793 C 1117.613 446.266 1114.789 443.816 1111.876 441.443 L 1115.226 422.663 L 1093.926 409.583 L 1078.876 419.793 C 1075.056 417.793 1071.163 415.946 1067.196 414.253 L 1061.386 393.393 L 1036.786 386.283 L 1028.616 402.143 C 1024.776 401.373 1020.896 400.703 1016.986 400.143 L 1001.876 379.573 L 976.306 379.633 L 976.826 399.493 C 972.499 399.946 968.269 400.563 964.136 401.343 L 939.626 383.793 L 916.216 392.343 L 927.346 413.943 C 924.013 415.683 920.823 417.553 917.776 419.553 L 885.716 408.323 L 868.456 425.483 L 890.526 445.313 C 888.163 448.592 886.012 452.019 884.086 455.573 L 848.006 454.473 L 841.626 478.983 L 844.676 480.273 C 862.784 476.63 881.144 474.377 899.596 473.533 C 911.926 437.893 948.756 413.793 995.706 412.343 Z"/>
  <path class="cls-11" d="M 997.466 477.843 C 1003.728 474.045 1010.809 471.806 1018.116 471.313 C 1037.476 469.723 1057.656 478.413 1070.256 492.313 C 1086.966 496.313 1103.656 500.643 1119.686 505.043 C 1119.366 504.223 1119.056 503.403 1118.686 502.583 C 1101.376 462.273 1052.016 432.683 1004.316 435.073 C 973.226 436.623 948.676 451.303 937.266 473.073 C 946.646 473.293 956.366 473.723 966.346 474.393 C 976.056 475.043 986.516 476.243 997.466 477.843 Z"/>
  <path class="cls-12" d="M 784.156 526.793 C 784.156 526.793 841.936 500.873 900.796 500.873 C 935.98 500.846 971.138 502.829 1006.096 506.813 L 997.726 530.573 L 784.156 526.793 Z"/>
  <path class="cls-13" d="M 1020.326 515.043 L 1013.206 532.593 C 1013.206 532.593 1047.586 533.943 1052.986 530.973 C 1058.386 528.003 1061.716 521.433 1060.546 519.273 C 1059.646 517.623 1037.696 513.173 1027.466 511.173 C 1024.467 510.59 1021.475 512.212 1020.326 515.043 Z"/>
  <path class="cls-14" d="M 532.456 663.993 L 525.266 685.793 L 516.006 685.793 L 539.556 616.493 L 550.346 616.493 L 573.996 685.793 L 564.436 685.793 L 557.036 663.993 L 532.456 663.993 Z M 555.186 656.993 L 548.396 637.053 C 546.856 632.523 545.826 628.413 544.796 624.403 L 544.596 624.403 C 543.596 628.513 542.436 632.733 541.096 636.943 L 534.316 656.993 L 555.186 656.993 Z"/>
  <path class="cls-14" d="M 582.936 674.893 C 587.771 677.8 593.294 679.364 598.936 679.423 C 608.086 679.423 613.436 674.583 613.436 667.593 C 613.436 661.123 609.736 657.413 600.376 653.823 C 589.066 649.823 582.076 643.953 582.076 634.183 C 582.076 623.383 591.026 615.363 604.486 615.363 C 611.586 615.363 616.726 617.013 619.806 618.763 L 617.346 626.063 C 613.312 623.9 608.803 622.776 604.226 622.793 C 594.766 622.793 591.166 628.443 591.166 633.173 C 591.166 639.653 595.376 642.833 604.936 646.543 C 616.666 651.063 622.626 656.713 622.626 666.893 C 622.626 677.593 614.706 686.843 598.356 686.843 C 591.676 686.843 584.356 684.893 580.676 682.423 L 582.936 674.893 Z"/>
  <path class="cls-14" d="M 646.066 663.993 L 638.876 685.793 L 629.626 685.793 L 653.166 616.493 L 663.966 616.493 L 687.596 685.793 L 678.036 685.793 L 670.636 663.993 L 646.066 663.993 Z M 668.786 656.993 L 661.996 637.053 C 660.456 632.523 659.426 628.413 658.396 624.403 L 658.196 624.403 C 657.196 628.513 656.036 632.733 654.696 636.943 L 647.876 657.003 L 668.786 656.993 Z"/>
  <path class="cls-15" d="M 764.116 617.423 C 770.405 616.473 776.756 615.991 783.116 615.983 C 795.966 615.983 805.116 618.983 811.186 624.623 C 817.256 630.263 820.946 638.293 820.946 649.503 C 820.946 660.713 817.456 670.063 810.946 676.433 C 804.436 682.803 793.776 686.433 780.306 686.433 C 774.881 686.465 769.459 686.188 764.066 685.603 L 764.116 617.423 Z M 773.056 678.703 C 776.054 679.114 779.08 679.284 782.106 679.213 C 801.226 679.213 811.616 668.523 811.616 649.813 C 811.716 633.463 802.466 623.073 783.546 623.073 C 780.026 623.02 776.511 623.332 773.056 624.003 L 773.056 678.703 Z"/>
  <path class="cls-15" d="M 868.466 653.303 L 841.526 653.303 L 841.526 678.303 L 871.526 678.303 L 871.526 685.793 L 832.526 685.793 L 832.526 616.493 L 869.956 616.493 L 869.956 624.003 L 841.526 624.003 L 841.526 645.903 L 868.466 645.903 L 868.466 653.303 Z"/>
  <path class="cls-15" d="M 897.966 624.103 L 876.876 624.103 L 876.876 616.493 L 928.186 616.493 L 928.186 624.103 L 907.016 624.103 L 907.016 685.793 L 898.016 685.793 L 897.966 624.103 Z"/>
  <path class="cls-15" d="M 939.396 663.993 L 932.196 685.793 L 922.946 685.793 L 946.486 616.493 L 957.286 616.493 L 980.936 685.793 L 971.366 685.793 L 963.966 663.993 L 939.396 663.993 Z M 962.116 656.993 L 955.336 637.053 C 953.786 632.523 952.766 628.413 951.736 624.403 L 951.526 624.403 C 950.526 628.513 949.366 632.733 948.036 636.943 L 941.246 656.993 L 962.116 656.993 Z"/>
  <path class="cls-15" d="M 1000.046 616.493 L 1000.046 685.793 L 991.106 685.793 L 991.106 616.493 L 1000.046 616.493 Z"/>
  <path class="cls-15" d="M 1015.676 616.493 L 1024.676 616.493 L 1024.676 678.293 L 1054.286 678.293 L 1054.286 685.793 L 1015.676 685.793 L 1015.676 616.493 Z"/>
  <path class="cls-15" d="M 1073.146 616.493 L 1073.146 685.793 L 1064.196 685.793 L 1064.196 616.493 L 1073.146 616.493 Z"/>
  <path class="cls-15" d="M 1088.766 685.793 L 1088.766 616.493 L 1098.536 616.493 L 1120.746 651.553 C 1125.378 658.781 1129.534 666.303 1133.186 674.073 L 1133.396 673.973 C 1132.566 664.713 1132.396 656.283 1132.396 645.493 L 1132.396 616.493 L 1140.826 616.493 L 1140.826 685.793 L 1131.826 685.793 L 1109.826 650.633 C 1105.034 643.189 1100.693 635.465 1096.826 627.503 L 1096.526 627.603 C 1097.036 636.343 1097.246 644.673 1097.246 656.183 L 1097.246 685.793 L 1088.766 685.793 Z"/>
  <path class="cls-15" d="M 1209.156 682.713 C 1202.327 685.167 1195.132 686.451 1187.876 686.513 C 1177.386 686.513 1168.756 683.843 1161.966 677.363 C 1155.966 671.603 1152.306 662.363 1152.306 651.553 C 1152.406 630.893 1166.596 615.793 1189.876 615.793 C 1197.876 615.793 1204.166 617.543 1207.146 618.983 L 1204.986 626.283 C 1200.16 624.174 1194.93 623.15 1189.666 623.283 C 1172.806 623.283 1161.806 633.773 1161.806 651.143 C 1161.806 668.723 1172.396 679.143 1188.536 679.143 C 1194.396 679.143 1198.406 678.323 1200.456 677.293 L 1200.456 656.593 L 1186.336 656.593 L 1186.336 649.393 L 1209.156 649.393 L 1209.156 682.713 Z"/>
</svg>